<?xml version="1.0" standalone="no"?>
<!DOCTYPE svg PUBLIC "-//W3C//DTD SVG 20010904//EN"
 "http://www.w3.org/TR/2001/REC-SVG-20010904/DTD/svg10.dtd">
<svg version="1.0" xmlns="http://www.w3.org/2000/svg"
 width="669.000000pt" height="402.000000pt" viewBox="0 0 669.000000 402.000000"
 preserveAspectRatio="xMidYMid meet">

<g transform="translate(0.000000,402.000000) scale(0.100000,-0.100000)"
fill="#000000" stroke="none">
<path d="M1680 4005 c-10 -12 -11 -90 -7 -348 6 -424 21 -547 66 -547 42 0 46
30 45 310 -1 289 -22 535 -49 577 -18 27 -37 30 -55 8z"/>
<path d="M1023 3999 c-13 -5 -23 -17 -23 -27 0 -36 120 -478 165 -611 54 -157
112 -288 131 -295 26 -10 46 24 40 69 -24 154 -89 392 -172 627 -87 244 -93
255 -141 237z"/>
<path d="M5214 3785 c-16 -25 -56 -229 -119 -606 -19 -118 -37 -226 -40 -241
-5 -31 18 -60 40 -52 15 6 35 46 59 119 27 84 127 765 115 786 -14 26 -35 24
-55 -6z"/>
<path d="M2968 3740 c-337 -40 -553 -205 -654 -503 -56 -164 -54 -302 5 -422
65 -131 251 -273 324 -246 20 8 19 9 -11 15 -50 12 -136 97 -174 173 -28 58
-33 79 -36 163 -5 121 19 226 82 355 105 216 238 329 455 385 220 57 440 9
613 -134 216 -179 338 -487 342 -858 l1 -137 -36 -38 c-136 -142 -333 -482
-413 -713 -20 -56 -36 -104 -36 -107 0 -2 10 -3 23 -1 17 2 37 32 93 140 40
76 95 175 124 220 61 96 211 301 217 295 6 -6 -53 -224 -87 -322 -48 -139
-143 -328 -226 -451 -71 -106 -216 -274 -255 -294 -16 -9 -25 4 -77 112 -97
200 -182 458 -182 552 0 20 39 88 130 226 138 209 199 327 226 431 43 169 -36
326 -168 337 -68 5 -110 -22 -156 -98 -83 -140 -142 -407 -142 -649 l0 -104
-95 -98 c-108 -111 -196 -239 -238 -347 -16 -41 -41 -91 -56 -111 -15 -20 -47
-63 -72 -96 -71 -96 -195 -220 -240 -240 -40 -19 -42 -19 -55 0 -44 60 19 236
172 477 115 181 128 236 71 293 -23 23 -57 41 -112 58 -87 28 -86 25 -54 100
29 69 51 191 40 221 -18 45 -58 66 -126 66 -54 0 -69 -4 -111 -32 -144 -98
-127 -277 34 -357 23 -12 42 -23 42 -26 0 -10 -127 -237 -182 -325 -140 -223
-282 -395 -371 -448 -45 -27 -59 -31 -75 -23 -42 22 -52 106 -28 222 25 116
93 260 303 637 112 202 212 391 223 420 31 82 35 127 15 158 -34 53 -134 70
-203 35 -53 -27 -157 -141 -253 -276 -45 -63 -83 -115 -85 -115 -2 0 18 44 45
98 56 112 91 217 91 274 0 106 -170 145 -291 67 -78 -49 -233 -242 -352 -437
-27 -45 -52 -81 -53 -79 -2 2 33 93 78 203 76 184 82 204 83 270 0 80 -14 106
-72 130 -46 20 -144 17 -201 -4 -165 -63 -370 -299 -506 -582 -85 -177 -182
-488 -160 -510 21 -21 43 19 93 169 122 363 333 675 552 814 31 20 69 39 84
43 l28 7 -6 -50 c-10 -85 -43 -166 -209 -513 -256 -536 -305 -675 -315 -895
-5 -132 0 -149 49 -160 36 -9 67 24 92 96 38 108 318 701 403 854 108 193 236
370 348 480 69 68 158 131 163 115 6 -17 -54 -137 -196 -391 -159 -286 -197
-362 -255 -509 -59 -148 -96 -291 -104 -406 -6 -87 -5 -92 16 -103 12 -7 34
-11 49 -9 30 3 27 -2 171 298 99 207 181 348 326 565 161 241 269 380 349 447
38 32 73 58 78 58 31 0 -26 -112 -190 -371 -272 -431 -372 -700 -332 -894 24
-117 74 -178 155 -191 71 -10 125 16 218 105 86 82 160 188 361 516 64 105
121 191 126 193 5 2 21 -8 36 -23 31 -31 28 -55 -19 -132 -168 -272 -187 -312
-195 -429 -10 -149 57 -244 173 -244 92 0 174 65 305 242 l57 76 6 -86 c6
-107 34 -184 88 -245 73 -84 205 -124 320 -97 30 7 102 37 161 68 59 31 109
54 111 51 305 -401 474 -543 752 -634 186 -60 454 -71 628 -26 226 59 415 184
515 340 71 109 92 212 46 219 -17 2 -38 -20 -102 -105 -168 -226 -318 -338
-527 -394 -116 -32 -346 -32 -461 -1 -248 67 -456 230 -684 537 -104 140 -105
115 7 231 249 255 437 618 519 999 25 119 26 121 75 167 47 45 166 124 174
116 16 -16 -70 -209 -239 -538 -202 -391 -265 -546 -300 -730 -18 -93 -21
-206 -6 -245 12 -31 56 -50 85 -37 15 7 78 122 195 353 195 387 246 478 367
664 113 172 197 279 279 354 110 100 109 96 -44 -184 -225 -411 -263 -484
-313 -600 -79 -186 -120 -318 -127 -407 l-5 -78 38 -16 c53 -22 85 -6 121 59
37 70 327 540 432 702 180 276 282 405 385 487 74 59 61 32 -128 -262 -190
-295 -262 -439 -321 -636 -29 -101 -37 -252 -16 -315 28 -81 120 -130 205
-109 147 38 414 364 632 773 l57 108 41 -3 c79 -6 76 -39 -19 -188 -117 -184
-173 -315 -189 -441 -21 -167 103 -282 240 -224 49 20 135 104 208 203 66 89
73 90 76 6 1 -45 28 -114 54 -142 55 -59 153 -83 239 -58 116 34 188 158 188
329 0 84 -18 140 -115 352 -41 90 -79 183 -85 208 -17 78 4 142 64 195 93 81
186 30 173 -95 -7 -65 -52 -165 -97 -216 -39 -45 -34 -57 12 -29 73 45 147
187 148 280 0 112 -50 147 -210 147 -92 0 -112 -3 -160 -26 -65 -30 -125 -80
-146 -120 -20 -39 -18 -119 5 -184 11 -30 61 -126 111 -215 123 -214 134 -243
134 -355 0 -74 -4 -99 -23 -137 -43 -91 -102 -112 -145 -55 -62 82 -73 206
-31 352 14 48 24 89 23 90 -4 4 -31 8 -45 6 -7 0 -22 -20 -34 -43 -33 -67
-245 -342 -306 -398 -59 -54 -99 -71 -115 -49 -5 8 -7 46 -5 85 5 88 31 146
154 344 107 172 153 260 153 294 0 39 -20 75 -54 95 -40 24 -130 51 -173 51
-39 0 -39 3 -14 78 32 94 36 153 14 181 -40 49 -179 34 -246 -27 -32 -29 -57
-89 -57 -138 0 -40 5 -51 33 -78 18 -17 57 -39 85 -50 l52 -18 -46 -87 c-194
-357 -420 -650 -567 -735 -26 -16 -50 -26 -53 -23 -12 11 -4 130 12 194 41
167 120 330 366 759 190 330 208 394 126 444 -50 30 -111 36 -165 15 -59 -23
-176 -140 -263 -263 -36 -51 -156 -241 -267 -424 -112 -182 -206 -334 -210
-337 -11 -10 88 174 237 439 229 409 276 522 247 592 -30 71 -147 91 -228 40
-148 -95 -389 -442 -635 -915 -46 -89 -84 -157 -84 -150 0 6 95 199 210 430
116 230 224 450 240 490 39 93 49 182 26 218 -51 77 -231 77 -347 0 l-36 -23
-6 116 c-12 219 -55 388 -141 559 -78 156 -188 275 -332 359 -69 41 -202 84
-303 99 -103 16 -140 17 -243 5z m312 -915 c22 -43 25 -63 25 -150 0 -91 -3
-107 -34 -179 -19 -44 -57 -114 -85 -156 -54 -81 -136 -180 -148 -180 -13 0
-8 229 7 340 23 177 67 284 141 349 20 18 43 31 52 29 10 -2 28 -25 42 -53z
m-1057 -516 c21 -41 17 -101 -14 -196 -24 -74 -42 -80 -87 -29 -60 69 -55 156
14 224 24 24 49 42 56 40 7 -2 21 -20 31 -39z m3285 -113 c4 -45 -36 -186 -55
-193 -20 -8 -62 24 -69 53 -4 14 -1 44 5 65 13 43 85 123 104 116 7 -2 13 -20
15 -41z m-2523 -403 c34 -172 110 -379 194 -532 23 -41 41 -75 41 -77 0 -11
-166 -98 -219 -114 -109 -34 -166 -24 -208 38 -53 80 -51 197 8 374 38 117
150 338 171 338 4 0 10 -12 13 -27z"/>
<path d="M4482 3738 c-22 -28 -22 -84 3 -289 29 -243 75 -488 99 -524 32 -48
66 -20 66 53 0 89 -104 738 -122 759 -13 16 -33 17 -46 1z"/>
<path d="M423 3713 c-25 -9 -12 -45 49 -136 177 -264 375 -497 424 -497 6 0
17 7 25 16 11 13 10 22 -9 57 -63 119 -439 570 -471 566 -3 0 -12 -3 -18 -6z"/>
<path d="M5822 3578 c-66 -96 -314 -620 -337 -711 -10 -38 3 -67 28 -67 44 1
109 119 260 475 134 317 132 312 117 330 -20 24 -37 17 -68 -27z"/>
<path d="M16 3141 c-13 -14 -15 -24 -8 -38 26 -48 121 -113 281 -193 186 -93
231 -104 231 -55 0 34 -53 73 -219 161 -80 42 -173 92 -207 111 -60 32 -61 33
-78 14z"/>
<path d="M6263 3037 c-141 -118 -361 -334 -398 -391 -36 -55 10 -74 78 -33 56
34 270 233 403 374 88 94 115 128 112 145 -7 50 -41 34 -195 -95z"/>
<path d="M6595 2603 c-118 -28 -316 -89 -337 -105 -64 -45 -17 -67 100 -48 76
12 232 59 284 86 27 14 44 46 33 64 -6 10 -44 12 -80 3z"/>
<path d="M1197 969 c-300 -44 -523 -162 -680 -359 -130 -162 -201 -390 -122
-390 21 0 31 13 71 93 63 125 118 200 212 288 128 121 286 198 479 235 123 24
373 24 518 0 263 -43 636 -153 1190 -351 549 -196 955 -326 1155 -369 502
-107 922 -30 1272 235 139 106 242 219 198 219 -6 0 -45 -30 -86 -66 -318
-277 -714 -387 -1184 -329 -227 28 -419 86 -1120 340 -724 262 -1192 403
-1485 446 -135 20 -314 23 -418 8z"/>
<path d="M5704 900 c-61 -24 -76 -77 -99 -355 -18 -218 -30 -270 -91 -409 -53
-121 -56 -141 -17 -131 63 16 184 68 268 116 211 121 395 302 473 467 30 64
34 79 30 134 -4 51 -9 65 -32 85 -31 27 -80 30 -130 9 -19 -8 -70 -49 -114
-93 l-80 -78 -10 66 c-23 155 -100 229 -198 189z"/>
</g>
</svg>
